<?xml version="1.0" encoding="UTF-8"?><svg id="a" xmlns="http://www.w3.org/2000/svg" xmlns:xlink="http://www.w3.org/1999/xlink" viewBox="0 0 195.33 43.41"><defs><style>.c{fill:#f79226;}.c,.d,.e{stroke-width:0px;}.d{fill:none;}.f{clip-path:url(#b);}.e{fill:#fff;}</style><clipPath id="b"><rect class="d" width="195.33" height="43.41"/></clipPath></defs><g class="f"><path class="e" d="M129.54,40.25h-3.9l-.93-4.1c-1.63,1.85-3.25,3.14-4.88,3.85-1.63.72-3.5,1.07-5.61,1.07-2.6,0-4.94-.48-7-1.44-2.07-.96-3.82-2.27-5.25-3.93-1.43-1.66-2.53-3.59-3.29-5.8-.76-2.21-1.15-4.57-1.15-7.07s.38-4.81,1.15-7.02c.76-2.21,1.86-4.15,3.29-5.81,1.43-1.66,3.18-2.98,5.25-3.95,2.06-.98,4.4-1.46,7-1.46,1.89,0,3.68.25,5.39.76,1.71.51,3.23,1.25,4.56,2.24,1.33.99,2.44,2.24,3.32,3.73.88,1.5,1.43,3.22,1.66,5.17h-5.95c-.16-1.14-.51-2.14-1.05-3-.54-.86-1.21-1.59-2.03-2.17-.81-.58-1.72-1.02-2.73-1.32-1.01-.29-2.07-.44-3.17-.44-1.85,0-3.46.38-4.81,1.12-1.35.75-2.45,1.75-3.29,3-.85,1.25-1.47,2.68-1.88,4.27-.41,1.59-.61,3.22-.61,4.88s.2,3.29.61,4.88c.41,1.59,1.03,3.02,1.88,4.27.85,1.25,1.94,2.25,3.29,3,1.35.75,2.95,1.12,4.81,1.12,1.56.03,2.94-.17,4.15-.61,1.2-.44,2.22-1.07,3.05-1.9.83-.83,1.46-1.85,1.88-3.05.42-1.2.65-2.54.68-4h-9.27v-4.64h14.83v18.34Z"/><path class="e" d="M144.14,5.42h6.49l13.42,34.83h-6.54l-3.27-9.22h-13.9l-3.27,9.22h-6.29l13.37-34.83ZM141.99,26.39h10.63l-5.22-14.98h-.15l-5.27,14.98Z"/><path class="e" d="M169.02,28.64c0,1.33.23,2.47.68,3.41.46.94,1.09,1.72,1.9,2.32.81.6,1.75,1.04,2.81,1.32,1.06.28,2.2.41,3.44.41,1.33,0,2.47-.15,3.41-.46.94-.31,1.71-.71,2.29-1.19.59-.49,1.01-1.05,1.27-1.68.26-.63.39-1.28.39-1.93,0-1.33-.3-2.32-.9-2.95-.6-.63-1.26-1.08-1.98-1.34-1.24-.45-2.67-.89-4.32-1.29-1.64-.41-3.67-.93-6.07-1.59-1.5-.39-2.74-.9-3.73-1.54-.99-.63-1.78-1.34-2.37-2.12-.59-.78-1-1.61-1.24-2.49-.24-.88-.37-1.77-.37-2.68,0-1.76.37-3.28,1.1-4.56.73-1.28,1.7-2.35,2.9-3.19,1.2-.85,2.57-1.47,4.1-1.88,1.53-.41,3.07-.61,4.63-.61,1.82,0,3.54.24,5.15.71,1.61.47,3.02,1.18,4.24,2.12,1.22.94,2.19,2.11,2.9,3.49.72,1.38,1.07,2.98,1.07,4.81h-6.1c-.16-2.24-.93-3.83-2.29-4.76-1.37-.93-3.11-1.39-5.22-1.39-.71,0-1.45.07-2.19.22-.75.15-1.43.39-2.05.73-.62.34-1.13.81-1.54,1.39-.41.59-.61,1.32-.61,2.2,0,1.24.38,2.2,1.15,2.9.76.7,1.76,1.23,3,1.59.13.03.64.17,1.54.42.9.24,1.89.51,3,.8,1.1.29,2.19.58,3.24.85,1.06.28,1.81.48,2.27.61,1.14.36,2.13.85,2.98,1.46.85.62,1.55,1.33,2.12,2.12.57.8.99,1.65,1.27,2.56.28.91.42,1.82.42,2.73,0,1.95-.4,3.62-1.2,5-.8,1.38-1.85,2.51-3.15,3.39-1.3.88-2.78,1.52-4.44,1.93-1.66.41-3.35.61-5.07.61-1.98,0-3.85-.24-5.61-.73-1.76-.49-3.28-1.24-4.59-2.24-1.3-1.01-2.34-2.3-3.12-3.88-.78-1.58-1.19-3.44-1.22-5.59h6.1Z"/><path class="e" d="M21.63,5.65c1.65,0,3.16.15,4.53.44,1.36.29,2.53.77,3.5,1.44.97.67,1.73,1.55,2.26,2.65.54,1.1.8,2.47.8,4.09,0,1.75-.4,3.21-1.19,4.38s-1.97,2.12-3.53,2.87c2.6.57,4.57,1.7,5.63,3.24,1.05,1.54,1.58,3.4,1.58,5.57,0,1.75-.34,3.27-1.02,4.55-.68,1.28-1.6,2.33-2.75,3.14-1.15.81-2.47,1.41-3.94,1.8-1.48.39-2.99.58-4.55.58H6.11V5.65h15.52ZM20.66,19.71c1.36,0,2.48-.32,3.36-.97.88-.65,1.31-1.7,1.31-3.16,0-.81-.15-1.48-.44-2-.29-.52-.68-.93-1.17-1.22-.49-.29-1.05-.49-1.68-.61-.63-.11-1.29-.17-1.97-.17h-6.32v8.13h6.9ZM21.93,34.46c.75,0,1.46-.07,2.14-.22.68-.15,1.28-.39,1.8-.73.52-.34.93-.8,1.24-1.39.31-.58.46-1.33.46-2.24,0-1.78-.5-3.06-1.51-3.82-1.01-.76-2.34-1.14-3.99-1.14h-8.32v9.54h8.18Z"/><polygon class="e" points="62.03 40.39 56.14 16.74 56.04 16.74 50.25 40.39 42.52 40.39 33.32 5.65 40.96 5.65 46.46 29.3 46.55 29.3 52.59 5.65 59.74 5.65 65.68 29.59 65.78 29.59 71.47 5.65 78.96 5.65 69.62 40.39 62.03 40.39"/><polygon class="e" points="86.02 5.48 85.73 5.48 82.83 16.25 86.46 26.8 80 26.8 78.47 32.49 88.45 32.49 91.08 40.23 99.01 40.23 86.02 5.48"/><path class="c" d="M129.54,40.25h-3.9l-.93-4.1c-1.63,1.85-3.25,3.14-4.88,3.85-1.63.72-3.5,1.07-5.61,1.07-2.6,0-4.94-.48-7-1.44-2.07-.96-3.82-2.27-5.25-3.93-1.43-1.66-2.53-3.59-3.29-5.8-.76-2.21-1.15-4.57-1.15-7.07s.38-4.81,1.15-7.02c.76-2.21,1.86-4.15,3.29-5.81,1.43-1.66,3.18-2.98,5.25-3.95,2.06-.98,4.4-1.46,7-1.46,1.89,0,3.68.25,5.39.76,1.71.51,3.23,1.25,4.56,2.24,1.33.99,2.44,2.24,3.32,3.73.88,1.5,1.43,3.22,1.66,5.17h-5.95c-.16-1.14-.51-2.14-1.05-3-.54-.86-1.21-1.59-2.03-2.17-.81-.58-1.72-1.02-2.73-1.32-1.01-.29-2.07-.44-3.17-.44-1.85,0-3.46.38-4.81,1.12-1.35.75-2.45,1.75-3.29,3-.85,1.25-1.47,2.68-1.88,4.27-.41,1.59-.61,3.22-.61,4.88s.2,3.29.61,4.88c.41,1.59,1.03,3.02,1.88,4.27.85,1.25,1.94,2.25,3.29,3,1.35.75,2.95,1.12,4.81,1.12,1.56.03,2.94-.17,4.15-.61,1.2-.44,2.22-1.07,3.05-1.9.83-.83,1.46-1.85,1.88-3.05.42-1.2.65-2.54.68-4h-9.27v-4.64h14.83v18.34Z"/><path class="c" d="M144.14,5.42h6.49l13.42,34.83h-6.54l-3.27-9.22h-13.9l-3.27,9.22h-6.29l13.37-34.83ZM141.99,26.39h10.63l-5.22-14.98h-.15l-5.27,14.98Z"/><path class="c" d="M169.02,28.64c0,1.33.23,2.47.68,3.41.46.94,1.09,1.72,1.9,2.32.81.6,1.75,1.04,2.81,1.32,1.06.28,2.2.41,3.44.41,1.33,0,2.47-.15,3.41-.46.94-.31,1.71-.71,2.29-1.19.59-.49,1.01-1.05,1.27-1.68.26-.63.39-1.28.39-1.93,0-1.33-.3-2.32-.9-2.95-.6-.63-1.26-1.08-1.98-1.34-1.24-.45-2.67-.89-4.32-1.29-1.64-.41-3.67-.93-6.07-1.59-1.5-.39-2.74-.9-3.73-1.54-.99-.63-1.78-1.34-2.37-2.12-.59-.78-1-1.61-1.24-2.49-.24-.88-.37-1.77-.37-2.68,0-1.76.37-3.28,1.1-4.56.73-1.28,1.7-2.35,2.9-3.19,1.2-.85,2.57-1.47,4.1-1.88,1.53-.41,3.07-.61,4.63-.61,1.82,0,3.54.24,5.15.71,1.61.47,3.02,1.18,4.24,2.12,1.22.94,2.19,2.11,2.9,3.49.72,1.38,1.07,2.98,1.07,4.81h-6.1c-.16-2.24-.93-3.83-2.29-4.76-1.37-.93-3.11-1.39-5.22-1.39-.71,0-1.45.07-2.19.22-.75.15-1.43.39-2.05.73-.62.34-1.13.81-1.54,1.39-.41.59-.61,1.32-.61,2.2,0,1.24.38,2.2,1.15,2.9.76.7,1.76,1.23,3,1.59.13.03.64.17,1.54.42.9.24,1.89.51,3,.8,1.1.29,2.19.58,3.24.85,1.06.28,1.81.48,2.27.61,1.14.36,2.13.85,2.98,1.46.85.62,1.55,1.33,2.12,2.12.57.8.99,1.65,1.27,2.56.28.91.42,1.82.42,2.73,0,1.95-.4,3.62-1.2,5-.8,1.38-1.85,2.51-3.15,3.39-1.3.88-2.78,1.52-4.44,1.93-1.66.41-3.35.61-5.07.61-1.98,0-3.85-.24-5.61-.73-1.76-.49-3.28-1.24-4.59-2.24-1.3-1.01-2.34-2.3-3.12-3.88-.78-1.58-1.19-3.44-1.22-5.59h6.1Z"/></g></svg>