<svg xmlns="http://www.w3.org/2000/svg" id="Layer_1" data-name="Layer 1" version="1.1" viewBox="0 0 186.3 38.1">
  <defs>
    <style>
      .cls-1,.cls-2{fill:#000;stroke-width:0}.cls-2{fill:#f79226}
    </style>
  </defs>
  <path d="M16.1 1.9c1.5 0 3 .1 4.5.4 1.2.2 2.4.7 3.5 1.4 1 .7 1.8 1.6 2.3 2.7.6 1.3.8 2.7.8 4.1 0 1.5-.4 3.1-1.2 4.4-.9 1.3-2.1 2.2-3.5 2.9 2.2.3 4.2 1.5 5.6 3.2 1.1 1.6 1.6 3.6 1.6 5.6 0 1.6-.3 3.1-1 4.5-.7 1.2-1.6 2.3-2.8 3.1-1.2.8-2.5 1.4-3.9 1.8-1.5.4-3 .6-4.5.6H.5V1.9H16Zm-1 14c1.2 0 2.4-.3 3.4-1 .9-.8 1.4-2 1.3-3.2 0-.7-.1-1.4-.4-2-.3-.5-.7-.9-1.2-1.2-.5-.3-1.1-.5-1.7-.6-.7-.1-1.3-.2-2-.2H8.3v8.1h6.9Zm1.2 14.8c.7 0 1.4 0 2.1-.2.6-.1 1.2-.4 1.8-.7.5-.3 1-.8 1.2-1.4.3-.7.5-1.5.5-2.2.1-1.4-.4-2.9-1.5-3.8-1.2-.8-2.6-1.2-4-1.1H8.1v9.5h8.1ZM56.5 36.6 50.6 13h-.1l-5.8 23.6h-7.8L27.7 1.9h7.7l5.5 23.6h.1l6-23.6h7.2l5.9 23.9h.1l5.7-23.9h7.5L64 36.6h-7.5zM80.4 1.7h-.2l-2.9 10.8L80.9 23h-6.5l-1.5 5.7h10l2.6 7.7h7.9l-13-34.7z" class="cls-1"/>
  <path d="M124 36.4h-3.9l-.9-4.1c-1.3 1.6-3 2.9-4.9 3.8-1.8.7-3.7 1.1-5.6 1.1-2.4 0-4.8-.4-7-1.4-2-.9-3.8-2.3-5.2-3.9-1.5-1.7-2.6-3.7-3.3-5.8-.8-2.3-1.2-4.7-1.1-7.1 0-2.4.4-4.7 1.1-7 .7-2.1 1.8-4.1 3.3-5.8 1.4-1.7 3.2-3 5.2-3.9 2.2-1 4.6-1.5 7-1.5 1.8 0 3.6.2 5.4.8 1.6.5 3.2 1.2 4.6 2.2 1.4 1 2.5 2.3 3.3 3.7.9 1.6 1.5 3.3 1.7 5.2h-6c-.1-1.1-.5-2.1-1-3-.5-.8-1.2-1.6-2-2.2-.8-.6-1.8-1-2.8-1.3-1-.3-2.1-.4-3.2-.4-1.7 0-3.3.3-4.8 1.1-1.3.7-2.5 1.8-3.3 3-.9 1.3-1.5 2.8-1.9 4.3-.8 3.2-.8 6.6 0 9.8.4 1.5 1 2.9 1.9 4.2.8 1.2 2 2.3 3.3 3 1.5.8 3.1 1.2 4.8 1.1 1.4 0 2.8-.2 4.2-.6 1.1-.4 2.1-1.1 3-1.9.8-.9 1.5-1.9 1.9-3 .4-1.3.7-2.6.7-4h-9.3v-4.7H124v18.3ZM138.6 1.6h6.5l13.4 34.8H152l-3.3-9.2h-13.9l-3.3 9.2h-6.3l13.4-34.8Zm-2.2 21H147l-5.2-15h-.1l-5.3 15ZM163.4 24.8c0 1.2.2 2.3.7 3.4.4.9 1.1 1.7 1.9 2.3.8.6 1.8 1.1 2.8 1.3 1.1.3 2.3.4 3.4.4 1.2 0 2.3-.1 3.4-.5.8-.3 1.6-.7 2.3-1.2.6-.4 1-1 1.3-1.7.3-.6.4-1.3.4-1.9 0-1.1-.2-2.1-.9-3-.5-.6-1.2-1.1-2-1.3-1.4-.5-2.9-.9-4.3-1.3-1.6-.4-3.7-.9-6.1-1.6-1.3-.3-2.6-.8-3.7-1.5-.9-.6-1.7-1.3-2.3-2.1-.6-.7-1-1.6-1.2-2.5-.2-.9-.4-1.8-.4-2.7 0-1.6.3-3.2 1.1-4.6.7-1.3 1.7-2.4 2.9-3.2 1.2-.9 2.6-1.5 4.1-1.9 1.5-.4 3.1-.6 4.7-.6 1.7 0 3.5.2 5.1.7 1.5.4 3 1.2 4.2 2.1 2.6 1.9 4.1 5 4 8.3h-6.1c-.2-2.2-1-3.8-2.3-4.7-1.6-1-3.4-1.5-5.2-1.4-.7 0-1.5 0-2.2.2-.7.1-1.4.4-2 .7-.6.3-1.2.8-1.6 1.3-.4.7-.6 1.4-.6 2.2 0 1.1.4 2.1 1.1 2.9.9.8 1.9 1.3 3 1.6l1.5.4 3 .8 3.2.9 2.3.6c1.1.3 2.1.8 3 1.5.8.6 1.5 1.3 2.1 2.1.6.8 1 1.7 1.3 2.6.3.9.4 1.8.4 2.7 0 1.7-.4 3.5-1.2 5-.8 1.4-1.8 2.5-3.1 3.4-1.4.9-2.9 1.6-4.4 1.9-1.7.4-3.4.6-5.1.6-1.9 0-3.8-.2-5.6-.7-1.7-.4-3.2-1.2-4.6-2.2-1.3-1-2.4-2.4-3.1-3.9-.8-1.7-1.2-3.7-1.2-5.6h6.1Z" class="cls-2"/>
</svg>
