<svg xmlns="http://www.w3.org/2000/svg" viewBox="0 0 300.52 69.8"><defs><style>.cls-1{fill:#f79226;}</style></defs><g id="Layer_2" data-name="Layer 2"><g id="Layer_1-2" data-name="Layer 1"><path d="M29.58,2.12A41.79,41.79,0,0,1,38.21,3a18.67,18.67,0,0,1,6.68,2.74,12.74,12.74,0,0,1,4.31,5.06,17.76,17.76,0,0,1,1.53,7.79,14.56,14.56,0,0,1-2.27,8.35,16.57,16.57,0,0,1-6.73,5.47c5,1.08,8.72,3.23,10.73,6.17a18.36,18.36,0,0,1,3,10.62,18.23,18.23,0,0,1-1.95,8.68,16.93,16.93,0,0,1-5.24,6,23.08,23.08,0,0,1-7.52,3.43,33.47,33.47,0,0,1-8.67,1.12H0V2.12ZM27.72,28.93a10.48,10.48,0,0,0,6.41-1.86q2.5-1.84,2.5-6a7.78,7.78,0,0,0-.83-3.8,6.22,6.22,0,0,0-2.23-2.32,9.45,9.45,0,0,0-3.2-1.16,21,21,0,0,0-3.76-.32h-12V28.93ZM30.15,57a19.33,19.33,0,0,0,4.08-.42,10.07,10.07,0,0,0,3.44-1.39A7.11,7.11,0,0,0,40,52.59a9.11,9.11,0,0,0,.88-4.27q0-5.1-2.87-7.28a12.25,12.25,0,0,0-7.61-2.18H14.57V57Z"/><path d="M106.6,68.36,95.38,23.27h-.19l-11,45.09H69.4L51.87,2.12H66.43L76.92,47.21h.18L88.61,2.12h13.63l11.32,45.64h.19L124.6,2.12h14.29L121.08,68.36Z"/><polygon points="152.34 1.8 151.78 1.8 146.26 22.33 153.17 42.43 140.86 42.43 137.94 53.29 156.97 53.29 161.98 68.04 177.11 68.04 152.34 1.8"/><path class="cls-1" d="M173.51,1.8l20,56.41L213.34,1.8h10L198.23,68h-9.52L163.59,1.8Z"/><path class="cls-1" d="M227.34,1.8h9.06V68h-9.06Z"/><path class="cls-1" d="M292.27,6.63q6.86,6.63,7.62,15.06h-8.75a18.26,18.26,0,0,0-5.82-10.15Q281,7.81,273.08,7.8a19.49,19.49,0,0,0-15.53,6.88q-5.91,6.88-5.91,21.1,0,11.64,5.34,18.88t15.92,7.25q9.75,0,14.84-7.62a29.28,29.28,0,0,0,4-10.56h8.75a30,30,0,0,1-7.67,17.54q-7.8,8.53-21,8.53-11.42,0-19.17-7-10.2-9.24-10.2-28.56,0-14.66,7.66-24Q258.4,0,273,0,285.4,0,292.27,6.63Z"/></g></g></svg>